<svg width="718" height="683" viewBox="0 0 718 683" fill="none" xmlns="http://www.w3.org/2000/svg">
<path d="M0 15.4743V30.9485L2.41203 30.6283C11.387 29.5078 17.1647 26.9465 22.718 21.6106C28.3273 16.328 31.0198 10.832 32.1978 2.24114L32.5344 4.70132e-05H16.2672H0V15.4743Z" fill="#F87399"/>
<path d="M111.402 2.24112C112.58 10.832 115.273 16.328 120.882 21.6106C127.108 27.5868 134.793 30.575 143.6 30.575C152.407 30.575 160.092 27.5868 166.318 21.6106C171.927 16.328 174.62 10.832 175.798 2.24112L176.134 2.96384e-05H143.6H111.066L111.402 2.24112Z" fill="#C6F39A"/>
<path d="M255.002 2.24112C256.18 10.832 258.873 16.328 264.482 21.6106C270.708 27.5868 278.393 30.575 287.2 30.575C296.007 30.575 303.691 27.5868 309.918 21.6106C315.527 16.328 318.22 10.832 319.398 2.24112L319.734 2.96384e-05H287.2H254.666L255.002 2.24112Z" fill="#DEFBF9"/>
<path d="M398.602 2.24112C399.78 10.832 402.473 16.328 408.082 21.6106C414.308 27.5868 421.993 30.575 430.8 30.575C439.607 30.575 447.292 27.5868 453.518 21.6106C459.127 16.328 461.82 10.832 462.998 2.24112L463.334 2.96384e-05H430.8H398.266L398.602 2.24112Z" fill="#C08BAD"/>
<path d="M542.202 2.24112C543.38 10.832 546.073 16.328 551.682 21.6106C557.909 27.5868 565.593 30.575 574.4 30.575C583.207 30.575 590.892 27.5868 597.118 21.6106C602.727 16.328 605.42 10.832 606.598 2.24112L606.934 2.96384e-05H574.4H541.866L542.202 2.24112Z" fill="#F3D1D6"/>
<path d="M685.802 2.24114C686.98 10.832 689.673 16.328 695.282 21.6106C700.835 26.9465 706.613 29.5078 715.644 30.6283L718 30.9485V15.4743V4.70132e-05H701.733H685.466L685.802 2.24114Z" fill="#DEFBF9"/>
<path d="M64.7883 25.8793C40.8923 29.5078 23.8959 50.7448 26.925 73.2091C28.3834 83.6142 32.0856 90.8177 39.8265 98.2346C45.6042 103.837 49.9795 106.452 57.2156 108.907C69.2758 112.962 82.5139 111.735 94.5179 105.438C97.1543 104.051 100.239 101.65 103.829 98.1813C108.654 93.5924 109.607 92.4185 112.075 87.456C117.516 76.7842 118.47 66.1656 114.936 55.5471C109.551 39.3792 95.0789 27.907 77.2411 25.6125C71.9122 24.9722 70.5659 24.9722 64.7883 25.8793Z" fill="#9EF3EF"/>
<path d="M208.388 25.8793C184.492 29.5078 167.496 50.7448 170.525 73.2091C171.984 83.6142 175.686 90.8177 183.427 98.2346C189.204 103.837 193.58 106.452 200.816 108.907C212.876 112.962 226.114 111.735 238.118 105.438C240.754 104.051 243.84 101.65 247.43 98.1813C252.254 93.5924 253.207 92.4185 255.675 87.456C261.116 76.7842 262.07 66.1656 258.536 55.5471C253.151 39.3792 238.679 27.907 220.841 25.6125C215.512 24.9722 214.166 24.9722 208.388 25.8793Z" fill="#F87399"/>
<path d="M351.988 25.8793C328.092 29.5078 311.096 50.7448 314.125 73.2091C315.583 83.6142 319.286 90.8177 327.026 98.2346C332.804 103.837 337.179 106.452 344.416 108.907C356.476 112.962 369.714 111.735 381.718 105.438C384.354 104.051 387.44 101.65 391.03 98.1813C395.854 93.5924 396.807 92.4185 399.275 87.456C404.716 76.7842 405.67 66.1656 402.136 55.5471C396.751 39.3792 382.279 27.907 364.441 25.6125C359.112 24.9722 357.766 24.9722 351.988 25.8793Z" fill="#F3D1D6"/>
<path d="M495.588 25.8793C471.692 29.5078 454.696 50.7448 457.725 73.2091C459.183 83.6142 462.886 90.8177 470.627 98.2346C476.404 103.837 480.78 106.452 488.016 108.907C500.076 112.962 513.314 111.735 525.318 105.438C527.954 104.051 531.04 101.65 534.63 98.1813C539.454 93.5924 540.407 92.4185 542.875 87.456C548.316 76.7842 549.27 66.1656 545.736 55.5471C540.351 39.3792 525.879 27.907 508.041 25.6125C502.712 24.9722 501.366 24.9722 495.588 25.8793Z" fill="#DEFBF9"/>
<path d="M639.188 25.8793C615.292 29.5078 598.296 50.7448 601.325 73.2091C602.783 83.6142 606.486 90.8177 614.226 98.2346C620.004 103.837 624.379 106.452 631.616 108.907C643.676 112.962 656.914 111.735 668.918 105.438C671.554 104.051 674.639 101.65 678.229 98.1813C683.053 93.5924 684.007 92.4185 686.475 87.456C691.916 76.7842 692.87 66.1656 689.336 55.5471C683.951 39.3792 669.479 27.907 651.641 25.6125C646.312 24.9722 644.966 24.9722 639.188 25.8793Z" fill="#F87399"/>
<path d="M0 136.6V167.548L2.41203 167.228C11.387 166.108 17.1647 163.547 22.718 158.211C29.0005 152.288 32.1417 144.977 32.1417 136.6C32.1417 128.223 29.0005 120.912 22.718 114.989C17.1647 109.654 11.387 107.092 2.41203 105.972L0 105.652V136.6Z" fill="#F3D1D6"/>
<path d="M139.056 106.185C131.596 107.306 125.93 110.08 120.602 115.203C114.6 120.966 111.458 128.383 111.458 136.6C111.458 144.977 114.6 152.288 120.882 158.211C127.108 164.187 134.793 167.175 143.6 167.175C152.407 167.175 160.092 164.187 166.318 158.211C172.6 152.288 175.742 144.977 175.742 136.6C175.742 131.478 174.844 127.689 172.32 122.727C166.542 111.361 152.238 104.264 139.056 106.185Z" fill="#C08BAD"/>
<path d="M282.656 106.185C275.196 107.306 269.531 110.08 264.202 115.203C258.2 120.966 255.058 128.383 255.058 136.6C255.058 144.977 258.2 152.288 264.482 158.211C270.709 164.187 278.393 167.175 287.2 167.175C296.007 167.175 303.692 164.187 309.918 158.211C316.201 152.288 319.342 144.977 319.342 136.6C319.342 131.478 318.444 127.689 315.92 122.727C310.142 111.361 295.839 104.264 282.656 106.185Z" fill="#DEFBF9"/>
<path d="M426.256 106.185C418.796 107.306 413.13 110.08 407.801 115.203C401.799 120.966 398.658 128.383 398.658 136.6C398.658 144.977 401.799 152.288 408.082 158.211C414.308 164.187 421.993 167.175 430.8 167.175C439.607 167.175 447.291 164.187 453.518 158.211C459.8 152.288 462.942 144.977 462.942 136.6C462.942 131.478 462.044 127.689 459.52 122.727C453.742 111.361 439.438 104.264 426.256 106.185Z" fill="#C08BAD"/>
<path d="M569.856 106.185C562.396 107.306 556.73 110.08 551.402 115.203C545.4 120.966 542.258 128.383 542.258 136.6C542.258 144.977 545.4 152.288 551.682 158.211C557.908 164.187 565.593 167.175 574.4 167.175C583.207 167.175 590.892 164.187 597.118 158.211C603.4 152.288 606.542 144.977 606.542 136.6C606.542 131.478 605.644 127.689 603.12 122.727C597.342 111.361 583.038 104.264 569.856 106.185Z" fill="#F3D1D6"/>
<path d="M713.456 106.239C706.108 107.252 700.386 110.027 695.001 115.203C688.999 120.966 685.858 128.383 685.858 136.6C685.858 144.977 688.999 152.288 695.282 158.211C700.835 163.547 706.613 166.108 715.644 167.228L718 167.548V136.6C718 112.161 717.832 105.652 717.327 105.705C716.934 105.758 715.195 105.972 713.456 106.239Z" fill="#9EF3EF"/>
<path d="M64.7883 162.479C40.8923 166.108 23.8959 187.345 26.925 209.809C27.7664 215.732 29.1126 219.841 32.1417 225.443C35.1708 230.993 43.3043 238.997 49.082 242.038C63.8347 249.829 79.7653 249.829 94.5179 242.038C97.1543 240.651 100.239 238.25 103.829 234.781C108.654 230.192 109.607 229.018 112.075 224.056C117.516 213.384 118.47 202.766 114.936 192.147C109.551 175.979 95.0789 164.507 77.2411 162.213C71.9122 161.572 70.5659 161.572 64.7883 162.479Z" fill="#F5BDC4"/>
<path d="M208.388 162.479C184.492 166.108 167.496 187.345 170.525 209.809C171.366 215.732 172.713 219.841 175.742 225.443C178.771 230.993 186.904 238.997 192.682 242.038C207.435 249.829 223.365 249.829 238.118 242.038C240.754 240.651 243.84 238.25 247.43 234.781C252.254 230.192 253.207 229.018 255.675 224.056C261.116 213.384 262.07 202.766 258.536 192.147C253.151 175.979 238.679 164.507 220.841 162.213C215.512 161.572 214.166 161.572 208.388 162.479Z" fill="#C6F39A"/>
<path d="M351.988 162.479C328.092 166.108 311.096 187.345 314.125 209.809C314.966 215.732 316.313 219.841 319.342 225.443C322.371 230.993 330.504 238.997 336.282 242.038C351.035 249.829 366.965 249.829 381.718 242.038C384.354 240.651 387.44 238.25 391.03 234.781C395.854 230.192 396.807 229.018 399.275 224.056C404.716 213.384 405.67 202.766 402.136 192.147C396.751 175.979 382.279 164.507 364.441 162.213C359.112 161.572 357.766 161.572 351.988 162.479Z" fill="#F5BDC4"/>
<path d="M495.588 162.479C471.692 166.108 454.696 187.345 457.725 209.809C458.566 215.732 459.913 219.841 462.942 225.443C465.971 230.993 474.104 238.997 479.882 242.038C494.635 249.829 510.565 249.829 525.318 242.038C527.954 240.651 531.04 238.25 534.63 234.781C539.454 230.192 540.407 229.018 542.875 224.056C548.316 213.384 549.27 202.766 545.736 192.147C540.351 175.979 525.879 164.507 508.041 162.213C502.712 161.572 501.366 161.572 495.588 162.479Z" fill="#C6F39A"/>
<path d="M639.188 162.479C615.292 166.108 598.296 187.345 601.325 209.809C602.166 215.732 603.513 219.841 606.542 225.443C609.571 230.993 617.704 238.997 623.482 242.038C638.235 249.829 654.165 249.829 668.918 242.038C671.554 240.651 674.639 238.25 678.229 234.781C683.053 230.192 684.007 229.018 686.475 224.056C691.916 213.384 692.87 202.766 689.336 192.147C683.951 175.979 669.479 164.507 651.641 162.213C646.312 161.572 644.966 161.572 639.188 162.479Z" fill="#C6F39A"/>
<path d="M0 273.2V304.148L2.41203 303.828C11.387 302.708 17.1647 300.146 22.718 294.811C29.0005 288.888 32.1417 281.577 32.1417 273.2C32.1417 264.823 29.0005 257.512 22.718 251.589C17.1647 246.254 11.387 243.692 2.41203 242.572L0 242.252V273.2Z" fill="#C08BAD"/>
<path d="M139.056 242.785C131.596 243.906 125.93 246.68 120.602 251.803C114.6 257.566 111.458 264.983 111.458 273.2C111.458 281.577 114.6 288.888 120.882 294.811C127.108 300.787 134.793 303.775 143.6 303.775C152.407 303.775 160.092 300.787 166.318 294.811C172.6 288.888 175.742 281.577 175.742 273.2C175.742 268.078 174.844 264.289 172.32 259.327C166.542 247.961 152.238 240.864 139.056 242.785Z" fill="#DEFBF9"/>
<path d="M282.656 242.785C275.196 243.906 269.531 246.68 264.202 251.803C258.2 257.566 255.058 264.983 255.058 273.2C255.058 281.577 258.2 288.888 264.482 294.811C270.709 300.787 278.393 303.775 287.2 303.775C296.007 303.775 303.692 300.787 309.918 294.811C316.201 288.888 319.342 281.577 319.342 273.2C319.342 268.078 318.444 264.289 315.92 259.327C310.142 247.961 295.839 240.864 282.656 242.785Z" fill="#C08BAD"/>
<path d="M426.256 242.785C418.796 243.906 413.13 246.68 407.801 251.803C401.799 257.566 398.658 264.983 398.658 273.2C398.658 281.577 401.799 288.888 408.082 294.811C414.308 300.787 421.993 303.775 430.8 303.775C439.607 303.775 447.291 300.787 453.518 294.811C459.8 288.888 462.942 281.577 462.942 273.2C462.942 268.078 462.044 264.289 459.52 259.327C453.742 247.961 439.438 240.864 426.256 242.785Z" fill="#DEFBF9"/>
<path d="M569.856 242.785C562.396 243.906 556.73 246.68 551.402 251.803C545.4 257.566 542.258 264.983 542.258 273.2C542.258 281.577 545.4 288.888 551.682 294.811C557.908 300.787 565.593 303.775 574.4 303.775C583.207 303.775 590.892 300.787 597.118 294.811C603.4 288.888 606.542 281.577 606.542 273.2C606.542 268.078 605.644 264.289 603.12 259.327C597.342 247.961 583.038 240.864 569.856 242.785Z" fill="#F87399"/>
<path d="M713.456 242.838C706.108 243.852 700.386 246.627 695.001 251.803C688.999 257.566 685.858 264.983 685.858 273.2C685.858 281.577 688.999 288.888 695.282 294.811C700.835 300.146 706.613 302.708 715.644 303.828L718 304.148V273.2C718 248.761 717.832 242.252 717.327 242.305C716.934 242.358 715.195 242.572 713.456 242.838Z" fill="#F3D1D6"/>
<path d="M64.7883 299.079C40.8923 302.708 23.8959 323.945 26.925 346.409C27.7664 352.332 29.1126 356.441 32.1417 362.043C35.1708 367.593 43.3043 375.597 49.082 378.638C63.8347 386.429 79.7653 386.429 94.5179 378.638C97.1543 377.251 100.239 374.85 103.829 371.381C108.654 366.792 109.607 365.618 112.075 360.656C117.516 349.984 118.47 339.366 114.936 328.747C109.551 312.579 95.0789 301.107 77.2411 298.812C71.9122 298.172 70.5659 298.172 64.7883 299.079Z" fill="#F87399"/>
<path d="M208.388 299.079C184.492 302.708 167.496 323.945 170.525 346.409C171.366 352.332 172.713 356.441 175.742 362.043C178.771 367.593 186.904 375.597 192.682 378.638C207.435 386.429 223.365 386.429 238.118 378.638C240.754 377.251 243.84 374.85 247.43 371.381C252.254 366.792 253.207 365.618 255.675 360.656C261.116 349.984 262.07 339.366 258.536 328.747C253.151 312.579 238.679 301.107 220.841 298.812C215.512 298.172 214.166 298.172 208.388 299.079Z" fill="#F5BDC4"/>
<path d="M351.988 299.079C328.092 302.708 311.096 323.945 314.125 346.409C314.966 352.332 316.313 356.441 319.342 362.043C322.371 367.593 330.504 375.597 336.282 378.638C351.035 386.429 366.965 386.429 381.718 378.638C384.354 377.251 387.44 374.85 391.03 371.381C395.854 366.792 396.807 365.618 399.275 360.656C404.716 349.984 405.67 339.366 402.136 328.747C396.751 312.579 382.279 301.107 364.441 298.812C359.112 298.172 357.766 298.172 351.988 299.079Z" fill="#C6F39A"/>
<path d="M495.588 299.079C471.692 302.708 454.696 323.945 457.725 346.409C458.566 352.332 459.913 356.441 462.942 362.043C465.971 367.593 474.104 375.597 479.882 378.638C494.635 386.429 510.565 386.429 525.318 378.638C527.954 377.251 531.04 374.85 534.63 371.381C539.454 366.792 540.407 365.618 542.875 360.656C548.316 349.984 549.27 339.366 545.736 328.747C540.351 312.579 525.879 301.107 508.041 298.812C502.712 298.172 501.366 298.172 495.588 299.079Z" fill="#F87399"/>
<path d="M639.188 299.079C615.292 302.708 598.296 323.945 601.325 346.409C602.166 352.332 603.513 356.441 606.542 362.043C609.571 367.593 617.704 375.597 623.482 378.638C638.235 386.429 654.165 386.429 668.918 378.638C671.554 377.251 674.639 374.85 678.229 371.381C683.053 366.792 684.007 365.618 686.475 360.656C691.916 349.984 692.87 339.366 689.336 328.747C683.951 312.579 669.479 301.107 651.641 298.812C646.312 298.172 644.966 298.172 639.188 299.079Z" fill="#9EF3EF"/>
<path d="M0 409.8V440.748L2.41203 440.428C11.387 439.308 17.1647 436.746 22.718 431.411C29.0005 425.488 32.1417 418.177 32.1417 409.8C32.1417 401.423 29.0005 394.112 22.718 388.189C17.1647 382.853 11.387 380.292 2.41203 379.172L0 378.852V409.8Z" fill="#F87399"/>
<path d="M139.056 379.385C131.596 380.506 125.93 383.28 120.602 388.403C114.6 394.166 111.458 401.583 111.458 409.8C111.458 418.177 114.6 425.488 120.882 431.411C127.108 437.387 134.793 440.375 143.6 440.375C152.407 440.375 160.092 437.387 166.318 431.411C172.6 425.488 175.742 418.177 175.742 409.8C175.742 404.677 174.844 400.889 172.32 395.927C166.542 384.561 152.238 377.464 139.056 379.385Z" fill="#9EF3EF"/>
<path d="M282.656 379.385C275.196 380.506 269.531 383.28 264.202 388.403C258.2 394.166 255.058 401.583 255.058 409.8C255.058 418.177 258.2 425.488 264.482 431.411C270.709 437.387 278.393 440.375 287.2 440.375C296.007 440.375 303.692 437.387 309.918 431.411C316.201 425.488 319.342 418.177 319.342 409.8C319.342 404.677 318.444 400.889 315.92 395.927C310.142 384.561 295.839 377.464 282.656 379.385Z" fill="#DEFBF9"/>
<path d="M426.256 379.385C418.796 380.506 413.13 383.28 407.801 388.403C401.799 394.166 398.658 401.583 398.658 409.8C398.658 418.177 401.799 425.488 408.082 431.411C414.308 437.387 421.993 440.375 430.8 440.375C439.607 440.375 447.291 437.387 453.518 431.411C459.8 425.488 462.942 418.177 462.942 409.8C462.942 404.677 462.044 400.889 459.52 395.927C453.742 384.561 439.438 377.464 426.256 379.385Z" fill="#F5BDC4"/>
<path d="M569.856 379.385C562.396 380.506 556.73 383.28 551.402 388.403C545.4 394.166 542.258 401.583 542.258 409.8C542.258 418.177 545.4 425.488 551.682 431.411C557.908 437.387 565.593 440.375 574.4 440.375C583.207 440.375 590.892 437.387 597.118 431.411C603.4 425.488 606.542 418.177 606.542 409.8C606.542 404.677 605.644 400.889 603.12 395.927C597.342 384.561 583.038 377.464 569.856 379.385Z" fill="#F3D1D6"/>
<path d="M713.456 379.438C706.108 380.452 700.386 383.227 695.001 388.403C688.999 394.166 685.858 401.583 685.858 409.8C685.858 418.177 688.999 425.488 695.282 431.411C700.835 436.746 706.613 439.308 715.644 440.428L718 440.748V409.8C718 385.361 717.832 378.852 717.327 378.905C716.934 378.958 715.195 379.172 713.456 379.438Z" fill="#F5BDC4"/>
<path d="M64.7883 435.679C40.8923 439.308 23.8959 460.545 26.925 483.009C27.7664 488.932 29.1126 493.041 32.1417 498.643C35.1708 504.193 43.3043 512.197 49.082 515.238C63.8347 523.029 79.7653 523.029 94.5179 515.238C97.1543 513.851 100.239 511.45 103.829 507.981C108.654 503.392 109.607 502.218 112.075 497.256C117.516 486.584 118.47 475.966 114.936 465.347C109.551 449.179 95.0789 437.707 77.2411 435.413C71.9122 434.772 70.5659 434.772 64.7883 435.679Z" fill="#C6F39A"/>
<path d="M208.388 435.679C184.492 439.308 167.496 460.545 170.525 483.009C171.366 488.932 172.713 493.041 175.742 498.643C178.771 504.193 186.904 512.197 192.682 515.238C207.435 523.029 223.365 523.029 238.118 515.238C240.754 513.851 243.84 511.45 247.43 507.981C252.254 503.392 253.207 502.218 255.675 497.256C261.116 486.584 262.07 475.966 258.536 465.347C253.151 449.179 238.679 437.707 220.841 435.413C215.512 434.772 214.166 434.772 208.388 435.679Z" fill="#F87399"/>
<path d="M351.988 435.679C328.092 439.308 311.096 460.545 314.125 483.009C314.966 488.932 316.313 493.041 319.342 498.643C322.371 504.193 330.504 512.197 336.282 515.238C351.035 523.029 366.965 523.029 381.718 515.238C384.354 513.851 387.44 511.45 391.03 507.981C395.854 503.392 396.807 502.218 399.275 497.256C404.716 486.584 405.67 475.966 402.136 465.347C396.751 449.179 382.279 437.707 364.441 435.413C359.112 434.772 357.766 434.772 351.988 435.679Z" fill="#F3D1D6"/>
<path d="M495.588 435.679C471.692 439.308 454.696 460.545 457.725 483.009C458.566 488.932 459.913 493.041 462.942 498.643C465.971 504.193 474.104 512.197 479.882 515.238C494.635 523.029 510.565 523.029 525.318 515.238C527.954 513.851 531.04 511.45 534.63 507.981C539.454 503.392 540.407 502.218 542.875 497.256C548.316 486.584 549.27 475.966 545.736 465.347C540.351 449.179 525.879 437.707 508.041 435.413C502.712 434.772 501.366 434.772 495.588 435.679Z" fill="#DEFBF9"/>
<path d="M639.188 435.679C615.292 439.308 598.296 460.545 601.325 483.009C602.166 488.932 603.513 493.041 606.542 498.643C609.571 504.193 617.704 512.197 623.482 515.238C638.235 523.029 654.165 523.029 668.918 515.238C671.554 513.851 674.639 511.45 678.229 507.981C683.053 503.392 684.007 502.218 686.475 497.256C691.916 486.584 692.87 475.966 689.336 465.347C683.951 449.179 669.479 437.707 651.641 435.413C646.312 434.772 644.966 434.772 639.188 435.679Z" fill="#F87399"/>
<path d="M0 546.4V577.348L2.41203 577.028C11.387 575.908 17.1647 573.346 22.718 568.011C29.0005 562.088 32.1417 554.777 32.1417 546.4C32.1417 538.023 29.0005 530.712 22.718 524.789C17.1647 519.453 11.387 516.892 2.41203 515.772L0 515.452V546.4Z" fill="#9EF3EF"/>
<path d="M139.056 515.985C131.596 517.106 125.93 519.88 120.602 525.003C114.6 530.766 111.458 538.183 111.458 546.4C111.458 554.777 114.6 562.088 120.882 568.01C127.108 573.987 134.793 576.975 143.6 576.975C152.407 576.975 160.092 573.987 166.318 568.01C172.6 562.088 175.742 554.777 175.742 546.4C175.742 541.277 174.844 537.489 172.32 532.527C166.542 521.161 152.238 514.064 139.056 515.985Z" fill="#F5BDC4"/>
<path d="M282.656 515.985C275.196 517.106 269.531 519.88 264.202 525.003C258.2 530.766 255.058 538.183 255.058 546.4C255.058 554.777 258.2 562.088 264.482 568.01C270.709 573.987 278.393 576.975 287.2 576.975C296.007 576.975 303.692 573.987 309.918 568.01C316.201 562.088 319.342 554.777 319.342 546.4C319.342 541.277 318.444 537.489 315.92 532.527C310.142 521.161 295.839 514.064 282.656 515.985Z" fill="#C6F39A"/>
<path d="M426.256 515.985C418.796 517.106 413.13 519.88 407.801 525.003C401.799 530.766 398.658 538.183 398.658 546.4C398.658 554.777 401.799 562.088 408.082 568.01C414.308 573.987 421.993 576.975 430.8 576.975C439.607 576.975 447.291 573.987 453.518 568.01C459.8 562.088 462.942 554.777 462.942 546.4C462.942 541.277 462.044 537.489 459.52 532.527C453.742 521.161 439.438 514.064 426.256 515.985Z" fill="#9EF3EF"/>
<path d="M569.856 515.985C562.396 517.106 556.73 519.88 551.402 525.003C545.4 530.766 542.258 538.183 542.258 546.4C542.258 554.777 545.4 562.088 551.682 568.01C557.908 573.987 565.593 576.975 574.4 576.975C583.207 576.975 590.892 573.987 597.118 568.01C603.4 562.088 606.542 554.777 606.542 546.4C606.542 541.277 605.644 537.489 603.12 532.527C597.342 521.161 583.038 514.064 569.856 515.985Z" fill="#F5BDC4"/>
<path d="M713.456 516.038C706.108 517.052 700.386 519.827 695.001 525.003C688.999 530.766 685.858 538.183 685.858 546.4C685.858 554.777 688.999 562.088 695.282 568.011C700.835 573.346 706.613 575.908 715.644 577.028L718 577.348V546.4C718 521.961 717.832 515.452 717.327 515.505C716.934 515.558 715.195 515.772 713.456 516.038Z" fill="#9EF3EF"/>
<path d="M64.7883 572.279C40.8923 575.908 23.8959 597.145 26.925 619.609C28.3834 630.014 32.0856 637.218 39.8265 644.635C45.6042 650.237 49.9795 652.852 57.2156 655.307C69.2758 659.362 82.5139 658.135 94.5179 651.838C97.1543 650.451 100.239 648.05 103.829 644.581C108.654 639.992 109.607 638.818 112.075 633.856C117.516 623.184 118.47 612.566 114.936 601.947C109.551 585.779 95.0789 574.307 77.2411 572.012C71.9122 571.372 70.5659 571.372 64.7883 572.279Z" fill="#F87399"/>
<path d="M208.388 572.279C184.492 575.908 167.496 597.145 170.525 619.609C171.366 625.532 172.713 629.641 175.742 635.243C178.771 640.793 186.904 648.797 192.682 651.838C204.686 658.135 217.924 659.362 229.984 655.307C237.221 652.852 241.596 650.237 247.43 644.581C252.254 639.992 253.207 638.818 255.675 633.856C261.116 623.184 262.07 612.566 258.536 601.947C253.151 585.779 238.679 574.307 220.841 572.012C215.512 571.372 214.166 571.372 208.388 572.279Z" fill="#DEFBF9"/>
<path d="M351.988 572.279C328.092 575.908 311.096 597.145 314.125 619.609C315.583 630.014 319.286 637.218 327.026 644.635C332.804 650.237 337.179 652.852 344.416 655.307C356.476 659.362 369.714 658.135 381.718 651.838C384.354 650.451 387.44 648.05 391.03 644.581C395.854 639.992 396.807 638.818 399.275 633.856C404.716 623.184 405.67 612.566 402.136 601.947C396.751 585.779 382.279 574.307 364.441 572.012C359.112 571.372 357.766 571.372 351.988 572.279Z" fill="#C08BAD"/>
<path d="M495.588 572.279C471.692 575.908 454.696 597.145 457.725 619.609C459.183 630.014 462.886 637.218 470.627 644.635C476.404 650.237 480.78 652.852 488.016 655.307C500.076 659.362 513.314 658.135 525.318 651.838C527.954 650.451 531.04 648.05 534.63 644.581C539.454 639.992 540.407 638.818 542.875 633.856C548.316 623.184 549.27 612.566 545.736 601.947C540.351 585.779 525.879 574.307 508.041 572.012C502.712 571.372 501.366 571.372 495.588 572.279Z" fill="#F3D1D6"/>
<path d="M639.188 572.279C615.292 575.908 598.296 597.145 601.325 619.609C602.783 630.014 606.486 637.218 614.226 644.635C620.004 650.237 624.379 652.852 631.616 655.307C643.676 659.362 656.914 658.135 668.918 651.838C671.554 650.451 674.639 648.05 678.229 644.581C683.053 639.992 684.007 638.818 686.475 633.856C691.916 623.184 692.87 612.566 689.336 601.947C683.951 585.779 669.479 574.307 651.641 572.012C646.312 571.372 644.966 571.372 639.188 572.279Z" fill="#C6F39A"/>
<path d="M0 667.526V683H16.2672H32.5344L32.1978 680.706C31.0198 672.168 28.3273 666.672 22.718 661.389C17.1647 656.054 11.387 653.492 2.41203 652.372L0 652.052V667.526Z" fill="#F5BDC4"/>
<path d="M139.056 652.585C131.596 653.706 125.931 656.48 120.602 661.603C115.329 666.672 112.58 672.382 111.402 680.706L111.066 683H143.6H176.134L175.798 680.706C175.125 675.85 174.227 672.968 172.32 669.127C166.542 657.761 152.238 650.664 139.056 652.585Z" fill="#C6F39A"/>
<path d="M282.656 652.585C275.196 653.706 269.53 656.48 264.201 661.603C258.929 666.672 256.18 672.382 255.002 680.706L254.666 683H287.2H319.734L319.398 680.706C318.725 675.85 317.827 672.968 315.92 669.127C310.142 657.761 295.838 650.664 282.656 652.585Z" fill="#F3D1D6"/>
<path d="M426.256 652.585C418.796 653.706 413.13 656.48 407.802 661.603C402.529 666.672 399.78 672.382 398.602 680.706L398.266 683H430.8H463.334L462.998 680.706C462.325 675.85 461.427 672.968 459.52 669.127C453.742 657.761 439.438 650.664 426.256 652.585Z" fill="#C6F39A"/>
<path d="M569.856 652.585C562.396 653.706 556.731 656.48 551.402 661.603C546.129 666.672 543.38 672.382 542.202 680.706L541.866 683H574.4H606.934L606.598 680.706C605.925 675.85 605.027 672.968 603.12 669.127C597.342 657.761 583.039 650.664 569.856 652.585Z" fill="#9EF3EF"/>
<path d="M713.456 652.638C706.108 653.652 700.387 656.427 695.002 661.603C689.729 666.672 686.98 672.381 685.802 680.706L685.466 683H701.733H718V667.526C718 655.467 717.832 652.052 717.327 652.105C716.934 652.158 715.195 652.372 713.456 652.638Z" fill="#C08BAD"/>
</svg>
