<?xml version="1.0" standalone="no"?>
<!DOCTYPE svg PUBLIC "-//W3C//DTD SVG 20010904//EN"
 "http://www.w3.org/TR/2001/REC-SVG-20010904/DTD/svg10.dtd">
<svg version="1.0" xmlns="http://www.w3.org/2000/svg"
 width="1280.000000pt" height="1280.000000pt" viewBox="0 0 1280.000000 1280.000000"
 preserveAspectRatio="xMidYMid meet">
<metadata>
Created by potrace 1.15, written by Peter Selinger 2001-2017
</metadata>
<g transform="translate(0.000000,1280.000000) scale(0.100000,-0.100000)"
fill="#000000" stroke="none">
<path d="M0 12510 l0 -290 43 6 c160 21 263 69 362 169 100 99 148 202 169
363 l6 42 -290 0 -290 0 0 -290z"/>
<path d="M1986 12758 c21 -161 69 -264 169 -363 111 -112 248 -168 405 -168
157 0 294 56 405 168 100 99 148 202 169 363 l6 42 -580 0 -580 0 6 -42z"/>
<path d="M4546 12758 c21 -161 69 -264 169 -363 111 -112 248 -168 405 -168
157 0 294 56 405 168 100 99 148 202 169 363 l6 42 -580 0 -580 0 6 -42z"/>
<path d="M7106 12758 c21 -161 69 -264 169 -363 111 -112 248 -168 405 -168
157 0 294 56 405 168 100 99 148 202 169 363 l6 42 -580 0 -580 0 6 -42z"/>
<path d="M9666 12758 c21 -161 69 -264 169 -363 111 -112 248 -168 405 -168
157 0 294 56 405 168 100 99 148 202 169 363 l6 42 -580 0 -580 0 6 -42z"/>
<path d="M12226 12758 c21 -161 69 -264 169 -363 99 -100 202 -148 363 -169
l42 -6 0 290 0 290 -290 0 -290 0 6 -42z"/>
<path d="M1155 12315 c-426 -68 -729 -466 -675 -887 26 -195 92 -330 230 -469
103 -105 181 -154 310 -200 215 -76 451 -53 665 65 47 26 102 71 166 136 86
86 103 108 147 201 97 200 114 399 51 598 -96 303 -354 518 -672 561 -95 12
-119 12 -222 -5z"/>
<path d="M3715 12315 c-426 -68 -729 -466 -675 -887 26 -195 92 -330 230 -469
103 -105 181 -154 310 -200 215 -76 451 -53 665 65 47 26 102 71 166 136 86
86 103 108 147 201 97 200 114 399 51 598 -96 303 -354 518 -672 561 -95 12
-119 12 -222 -5z"/>
<path d="M6275 12315 c-426 -68 -729 -466 -675 -887 26 -195 92 -330 230 -469
103 -105 181 -154 310 -200 215 -76 451 -53 665 65 47 26 102 71 166 136 86
86 103 108 147 201 97 200 114 399 51 598 -96 303 -354 518 -672 561 -95 12
-119 12 -222 -5z"/>
<path d="M8835 12315 c-426 -68 -729 -466 -675 -887 26 -195 92 -330 230 -469
103 -105 181 -154 310 -200 215 -76 451 -53 665 65 47 26 102 71 166 136 86
86 103 108 147 201 97 200 114 399 51 598 -96 303 -354 518 -672 561 -95 12
-119 12 -222 -5z"/>
<path d="M11395 12315 c-426 -68 -729 -466 -675 -887 26 -195 92 -330 230
-469 103 -105 181 -154 310 -200 215 -76 451 -53 665 65 47 26 102 71 166 136
86 86 103 108 147 201 97 200 114 399 51 598 -96 303 -354 518 -672 561 -95
12 -119 12 -222 -5z"/>
<path d="M0 10240 l0 -580 43 6 c160 21 263 69 362 169 112 111 168 248 168
405 0 157 -56 294 -168 405 -99 100 -202 148 -362 169 l-43 6 0 -580z"/>
<path d="M2479 10810 c-133 -21 -234 -73 -329 -169 -107 -108 -163 -247 -163
-401 0 -157 56 -294 168 -405 111 -112 248 -168 405 -168 157 0 294 56 405
168 112 111 168 248 168 405 0 96 -16 167 -61 260 -103 213 -358 346 -593 310z"/>
<path d="M5039 10810 c-133 -21 -234 -73 -329 -169 -107 -108 -163 -247 -163
-401 0 -157 56 -294 168 -405 111 -112 248 -168 405 -168 157 0 294 56 405
168 112 111 168 248 168 405 0 96 -16 167 -61 260 -103 213 -358 346 -593 310z"/>
<path d="M7599 10810 c-133 -21 -234 -73 -329 -169 -107 -108 -163 -247 -163
-401 0 -157 56 -294 168 -405 111 -112 248 -168 405 -168 157 0 294 56 405
168 112 111 168 248 168 405 0 96 -16 167 -61 260 -103 213 -358 346 -593 310z"/>
<path d="M10159 10810 c-133 -21 -234 -73 -329 -169 -107 -108 -163 -247 -163
-401 0 -157 56 -294 168 -405 111 -112 248 -168 405 -168 157 0 294 56 405
168 112 111 168 248 168 405 0 96 -16 167 -61 260 -103 213 -358 346 -593 310z"/>
<path d="M12719 10809 c-131 -19 -233 -71 -329 -168 -107 -108 -163 -247 -163
-401 0 -157 56 -294 168 -405 99 -100 202 -148 363 -169 l42 -6 0 580 c0 458
-3 580 -12 579 -7 -1 -38 -5 -69 -10z"/>
<path d="M1155 9755 c-426 -68 -729 -466 -675 -887 15 -111 39 -188 93 -293
54 -104 199 -254 302 -311 263 -146 547 -146 810 0 47 26 102 71 166 136 86
86 103 108 147 201 97 200 114 399 51 598 -96 303 -354 518 -672 561 -95 12
-119 12 -222 -5z"/>
<path d="M3715 9755 c-426 -68 -729 -466 -675 -887 15 -111 39 -188 93 -293
54 -104 199 -254 302 -311 263 -146 547 -146 810 0 47 26 102 71 166 136 86
86 103 108 147 201 97 200 114 399 51 598 -96 303 -354 518 -672 561 -95 12
-119 12 -222 -5z"/>
<path d="M6275 9755 c-426 -68 -729 -466 -675 -887 15 -111 39 -188 93 -293
54 -104 199 -254 302 -311 263 -146 547 -146 810 0 47 26 102 71 166 136 86
86 103 108 147 201 97 200 114 399 51 598 -96 303 -354 518 -672 561 -95 12
-119 12 -222 -5z"/>
<path d="M8835 9755 c-426 -68 -729 -466 -675 -887 15 -111 39 -188 93 -293
54 -104 199 -254 302 -311 263 -146 547 -146 810 0 47 26 102 71 166 136 86
86 103 108 147 201 97 200 114 399 51 598 -96 303 -354 518 -672 561 -95 12
-119 12 -222 -5z"/>
<path d="M11395 9755 c-426 -68 -729 -466 -675 -887 15 -111 39 -188 93 -293
54 -104 199 -254 302 -311 263 -146 547 -146 810 0 47 26 102 71 166 136 86
86 103 108 147 201 97 200 114 399 51 598 -96 303 -354 518 -672 561 -95 12
-119 12 -222 -5z"/>
<path d="M0 7680 l0 -580 43 6 c160 21 263 69 362 169 112 111 168 248 168
405 0 157 -56 294 -168 405 -99 100 -202 148 -362 169 l-43 6 0 -580z"/>
<path d="M2479 8250 c-133 -21 -234 -73 -329 -169 -107 -108 -163 -247 -163
-401 0 -157 56 -294 168 -405 111 -112 248 -168 405 -168 157 0 294 56 405
168 112 111 168 248 168 405 0 96 -16 167 -61 260 -103 213 -358 346 -593 310z"/>
<path d="M5039 8250 c-133 -21 -234 -73 -329 -169 -107 -108 -163 -247 -163
-401 0 -157 56 -294 168 -405 111 -112 248 -168 405 -168 157 0 294 56 405
168 112 111 168 248 168 405 0 96 -16 167 -61 260 -103 213 -358 346 -593 310z"/>
<path d="M7599 8250 c-133 -21 -234 -73 -329 -169 -107 -108 -163 -247 -163
-401 0 -157 56 -294 168 -405 111 -112 248 -168 405 -168 157 0 294 56 405
168 112 111 168 248 168 405 0 96 -16 167 -61 260 -103 213 -358 346 -593 310z"/>
<path d="M10159 8250 c-133 -21 -234 -73 -329 -169 -107 -108 -163 -247 -163
-401 0 -157 56 -294 168 -405 111 -112 248 -168 405 -168 157 0 294 56 405
168 112 111 168 248 168 405 0 96 -16 167 -61 260 -103 213 -358 346 -593 310z"/>
<path d="M12719 8249 c-131 -19 -233 -71 -329 -168 -107 -108 -163 -247 -163
-401 0 -157 56 -294 168 -405 99 -100 202 -148 363 -169 l42 -6 0 580 c0 458
-3 580 -12 579 -7 -1 -38 -5 -69 -10z"/>
<path d="M1155 7195 c-426 -68 -729 -466 -675 -887 15 -111 39 -188 93 -293
54 -104 199 -254 302 -311 263 -146 547 -146 810 0 47 26 102 71 166 136 86
86 103 108 147 201 97 200 114 399 51 598 -96 303 -354 518 -672 561 -95 12
-119 12 -222 -5z"/>
<path d="M3715 7195 c-426 -68 -729 -466 -675 -887 15 -111 39 -188 93 -293
54 -104 199 -254 302 -311 263 -146 547 -146 810 0 47 26 102 71 166 136 86
86 103 108 147 201 97 200 114 399 51 598 -96 303 -354 518 -672 561 -95 12
-119 12 -222 -5z"/>
<path d="M6275 7195 c-426 -68 -729 -466 -675 -887 15 -111 39 -188 93 -293
54 -104 199 -254 302 -311 263 -146 547 -146 810 0 47 26 102 71 166 136 86
86 103 108 147 201 97 200 114 399 51 598 -96 303 -354 518 -672 561 -95 12
-119 12 -222 -5z"/>
<path d="M8835 7195 c-426 -68 -729 -466 -675 -887 15 -111 39 -188 93 -293
54 -104 199 -254 302 -311 263 -146 547 -146 810 0 47 26 102 71 166 136 86
86 103 108 147 201 97 200 114 399 51 598 -96 303 -354 518 -672 561 -95 12
-119 12 -222 -5z"/>
<path d="M11395 7195 c-426 -68 -729 -466 -675 -887 15 -111 39 -188 93 -293
54 -104 199 -254 302 -311 263 -146 547 -146 810 0 47 26 102 71 166 136 86
86 103 108 147 201 97 200 114 399 51 598 -96 303 -354 518 -672 561 -95 12
-119 12 -222 -5z"/>
<path d="M0 5120 l0 -580 43 6 c160 21 263 69 362 169 112 111 168 248 168
405 0 157 -56 294 -168 405 -99 100 -202 148 -362 169 l-43 6 0 -580z"/>
<path d="M2479 5690 c-133 -21 -234 -73 -329 -169 -107 -108 -163 -247 -163
-401 0 -157 56 -294 168 -405 111 -112 248 -168 405 -168 157 0 294 56 405
168 112 111 168 248 168 405 0 96 -16 167 -61 260 -103 213 -358 346 -593 310z"/>
<path d="M5039 5690 c-133 -21 -234 -73 -329 -169 -107 -108 -163 -247 -163
-401 0 -157 56 -294 168 -405 111 -112 248 -168 405 -168 157 0 294 56 405
168 112 111 168 248 168 405 0 96 -16 167 -61 260 -103 213 -358 346 -593 310z"/>
<path d="M7599 5690 c-133 -21 -234 -73 -329 -169 -107 -108 -163 -247 -163
-401 0 -157 56 -294 168 -405 111 -112 248 -168 405 -168 157 0 294 56 405
168 112 111 168 248 168 405 0 96 -16 167 -61 260 -103 213 -358 346 -593 310z"/>
<path d="M10159 5690 c-133 -21 -234 -73 -329 -169 -107 -108 -163 -247 -163
-401 0 -157 56 -294 168 -405 111 -112 248 -168 405 -168 157 0 294 56 405
168 112 111 168 248 168 405 0 96 -16 167 -61 260 -103 213 -358 346 -593 310z"/>
<path d="M12719 5689 c-131 -19 -233 -71 -329 -168 -107 -108 -163 -247 -163
-401 0 -157 56 -294 168 -405 99 -100 202 -148 363 -169 l42 -6 0 580 c0 458
-3 580 -12 579 -7 -1 -38 -5 -69 -10z"/>
<path d="M1155 4635 c-426 -68 -729 -466 -675 -887 15 -111 39 -188 93 -293
54 -104 199 -254 302 -311 263 -146 547 -146 810 0 47 26 102 71 166 136 86
86 103 108 147 201 97 200 114 399 51 598 -96 303 -354 518 -672 561 -95 12
-119 12 -222 -5z"/>
<path d="M3715 4635 c-426 -68 -729 -466 -675 -887 15 -111 39 -188 93 -293
54 -104 199 -254 302 -311 263 -146 547 -146 810 0 47 26 102 71 166 136 86
86 103 108 147 201 97 200 114 399 51 598 -96 303 -354 518 -672 561 -95 12
-119 12 -222 -5z"/>
<path d="M6275 4635 c-426 -68 -729 -466 -675 -887 15 -111 39 -188 93 -293
54 -104 199 -254 302 -311 263 -146 547 -146 810 0 47 26 102 71 166 136 86
86 103 108 147 201 97 200 114 399 51 598 -96 303 -354 518 -672 561 -95 12
-119 12 -222 -5z"/>
<path d="M8835 4635 c-426 -68 -729 -466 -675 -887 15 -111 39 -188 93 -293
54 -104 199 -254 302 -311 263 -146 547 -146 810 0 47 26 102 71 166 136 86
86 103 108 147 201 97 200 114 399 51 598 -96 303 -354 518 -672 561 -95 12
-119 12 -222 -5z"/>
<path d="M11395 4635 c-426 -68 -729 -466 -675 -887 15 -111 39 -188 93 -293
54 -104 199 -254 302 -311 263 -146 547 -146 810 0 47 26 102 71 166 136 86
86 103 108 147 201 97 200 114 399 51 598 -96 303 -354 518 -672 561 -95 12
-119 12 -222 -5z"/>
<path d="M0 2560 l0 -580 43 6 c160 21 263 69 362 169 112 111 168 248 168
405 0 157 -56 294 -168 405 -99 100 -202 148 -362 169 l-43 6 0 -580z"/>
<path d="M2479 3130 c-133 -21 -234 -73 -329 -169 -107 -108 -163 -247 -163
-401 0 -157 56 -294 168 -405 111 -112 248 -168 405 -168 157 0 294 56 405
168 112 111 168 248 168 405 0 96 -16 167 -61 260 -103 213 -358 346 -593 310z"/>
<path d="M5039 3130 c-133 -21 -234 -73 -329 -169 -107 -108 -163 -247 -163
-401 0 -157 56 -294 168 -405 111 -112 248 -168 405 -168 157 0 294 56 405
168 112 111 168 248 168 405 0 96 -16 167 -61 260 -103 213 -358 346 -593 310z"/>
<path d="M7599 3130 c-133 -21 -234 -73 -329 -169 -107 -108 -163 -247 -163
-401 0 -157 56 -294 168 -405 111 -112 248 -168 405 -168 157 0 294 56 405
168 112 111 168 248 168 405 0 96 -16 167 -61 260 -103 213 -358 346 -593 310z"/>
<path d="M10159 3130 c-133 -21 -234 -73 -329 -169 -107 -108 -163 -247 -163
-401 0 -157 56 -294 168 -405 111 -112 248 -168 405 -168 157 0 294 56 405
168 112 111 168 248 168 405 0 96 -16 167 -61 260 -103 213 -358 346 -593 310z"/>
<path d="M12719 3129 c-131 -19 -233 -71 -329 -168 -107 -108 -163 -247 -163
-401 0 -157 56 -294 168 -405 99 -100 202 -148 363 -169 l42 -6 0 580 c0 458
-3 580 -12 579 -7 -1 -38 -5 -69 -10z"/>
<path d="M1155 2075 c-426 -68 -729 -466 -675 -887 26 -195 92 -330 230 -469
103 -105 181 -154 310 -200 215 -76 451 -53 665 65 47 26 102 71 166 136 86
86 103 108 147 201 97 200 114 399 51 598 -96 303 -354 518 -672 561 -95 12
-119 12 -222 -5z"/>
<path d="M3715 2075 c-426 -68 -729 -466 -675 -887 15 -111 39 -188 93 -293
54 -104 199 -254 302 -311 214 -118 450 -141 665 -65 129 46 207 95 311 201
86 86 103 108 147 201 97 200 114 399 51 598 -96 303 -354 518 -672 561 -95
12 -119 12 -222 -5z"/>
<path d="M6275 2075 c-426 -68 -729 -466 -675 -887 26 -195 92 -330 230 -469
103 -105 181 -154 310 -200 215 -76 451 -53 665 65 47 26 102 71 166 136 86
86 103 108 147 201 97 200 114 399 51 598 -96 303 -354 518 -672 561 -95 12
-119 12 -222 -5z"/>
<path d="M8835 2075 c-426 -68 -729 -466 -675 -887 26 -195 92 -330 230 -469
103 -105 181 -154 310 -200 215 -76 451 -53 665 65 47 26 102 71 166 136 86
86 103 108 147 201 97 200 114 399 51 598 -96 303 -354 518 -672 561 -95 12
-119 12 -222 -5z"/>
<path d="M11395 2075 c-426 -68 -729 -466 -675 -887 26 -195 92 -330 230 -469
103 -105 181 -154 310 -200 215 -76 451 -53 665 65 47 26 102 71 166 136 86
86 103 108 147 201 97 200 114 399 51 598 -96 303 -354 518 -672 561 -95 12
-119 12 -222 -5z"/>
<path d="M0 290 l0 -290 290 0 290 0 -6 43 c-21 160 -69 263 -169 362 -99 100
-202 148 -362 169 l-43 6 0 -290z"/>
<path d="M2479 570 c-133 -21 -234 -73 -329 -169 -94 -95 -143 -202 -164 -358
l-6 -43 580 0 580 0 -6 43 c-12 91 -28 145 -62 217 -103 213 -358 346 -593
310z"/>
<path d="M5039 570 c-133 -21 -234 -73 -329 -169 -94 -95 -143 -202 -164 -358
l-6 -43 580 0 580 0 -6 43 c-12 91 -28 145 -62 217 -103 213 -358 346 -593
310z"/>
<path d="M7599 570 c-133 -21 -234 -73 -329 -169 -94 -95 -143 -202 -164 -358
l-6 -43 580 0 580 0 -6 43 c-12 91 -28 145 -62 217 -103 213 -358 346 -593
310z"/>
<path d="M10159 570 c-133 -21 -234 -73 -329 -169 -94 -95 -143 -202 -164
-358 l-6 -43 580 0 580 0 -6 43 c-12 91 -28 145 -62 217 -103 213 -358 346
-593 310z"/>
<path d="M12719 569 c-131 -19 -233 -71 -329 -168 -94 -95 -143 -202 -164
-358 l-6 -43 290 0 290 0 0 290 c0 226 -3 290 -12 289 -7 -1 -38 -5 -69 -10z"/>
</g>
</svg>
