<svg width="1050" height="1002" viewBox="0 0 1050 1002" fill="none" xmlns="http://www.w3.org/2000/svg">
<path d="M515 923C515 923 0 595.724 0 324.527C0 188.927 118.889 79 265.547 79C380.142 79 477.783 146.117 515 240.156C552.217 146.117 649.858 79 764.453 79C911.111 79 1030 188.927 1030 324.527C1030 595.729 515 923 515 923Z" fill="#DB3B44"/>
<path d="M145.48 612.806C135.724 603.04 126.198 593.106 116.908 583.008H254.523L308.31 463.711C314.157 450.741 335.625 451.142 340.814 464.318L420.278 666.074L549.295 350.877C554.907 337.167 577.657 337.787 582.253 351.773L658.228 583.008H912.084C902.794 593.106 893.268 603.04 883.512 612.806H645.144C641.378 612.806 637.715 611.747 634.711 609.79C631.707 607.833 629.527 605.085 628.502 601.963L563.803 405.052L436.277 716.606C430.815 729.95 408.859 729.838 403.582 716.44L323.337 512.697L282.489 603.301C281.227 606.1 279.012 608.506 276.134 610.202C273.256 611.899 269.85 612.806 266.363 612.806H145.48V612.806Z" fill="#F5BDC4"/>
</svg>
