<?xml version="1.0" encoding="UTF-8" standalone="no"?>
<!-- Created with Inkscape (http://www.inkscape.org/) -->

<svg
   width="142.64609mm"
   height="135.09592mm"
   viewBox="0 0 142.64609 135.09592"
   version="1.1"
   id="svg5"
   inkscape:version="1.1 (c68e22c387, 2021-05-23)"
   sodipodi:docname="uterus.svg"
   xmlns:inkscape="http://www.inkscape.org/namespaces/inkscape"
   xmlns:sodipodi="http://sodipodi.sourceforge.net/DTD/sodipodi-0.dtd"
   xmlns="http://www.w3.org/2000/svg"
   xmlns:svg="http://www.w3.org/2000/svg">
  <sodipodi:namedview
     id="namedview7"
     pagecolor="#505050"
     bordercolor="#ffffff"
     borderopacity="1"
     inkscape:pageshadow="0"
     inkscape:pageopacity="0"
     inkscape:pagecheckerboard="1"
     inkscape:document-units="mm"
     showgrid="false"
     showguides="false"
     fit-margin-top="0"
     fit-margin-left="0"
     fit-margin-right="0"
     fit-margin-bottom="0"
     inkscape:zoom="1.0230034"
     inkscape:cx="185.23888"
     inkscape:cy="267.35005"
     inkscape:window-width="1920"
     inkscape:window-height="1001"
     inkscape:window-x="-9"
     inkscape:window-y="-9"
     inkscape:window-maximized="1"
     inkscape:current-layer="layer1" />
  <defs
     id="defs2" />
  <g
     inkscape:label="Layer 1"
     inkscape:groupmode="layer"
     id="layer1"
     transform="translate(782.12784,30.595112)">
    <g
       id="g707">
      <path
         style="fill:#f87399;stroke-width:0.352778"
         d="m -711.8299,104.31759 c -2.24974,-0.4592 -3.45558,-1.51374 -4.69105,-4.10243 -1.38863,-2.909611 -1.605,-5.249341 -0.9082,-9.820911 0.77621,-5.092586 5.6189,-20.963959 6.48459,-21.252524 0.52173,-0.173909 1.35708,1.77039 3.9673,9.23394 3.65035,10.437644 4.70437,15.817644 3.88553,19.832854 -0.54791,2.686711 -1.4803,4.164551 -3.29042,5.215361 -1.77853,1.03245 -3.43592,1.30435 -5.44775,0.89371 z m 4.07867,-0.88927 c 6.07683,-2.53844 5.67098,-11.030591 -1.40264,-29.350038 -0.76792,-1.988785 -1.53821,-3.615973 -1.71176,-3.615973 -0.36395,0 -3.78991,10.51656 -5.11815,15.71103 -0.50421,1.97185 -0.98543,5.06432 -1.09598,7.04314 -0.17227,3.08349 -0.0988,3.78688 0.58337,5.58516 1.68719,4.447611 4.99034,6.195161 8.74516,4.626681 z m -8.21341,-41.088761 c -3.11329,-0.627317 -5.26769,-1.56548 -5.80182,-2.526471 -0.45525,-0.819083 -0.46242,-1.226397 -0.0528,-2.998611 1.01616,-4.396606 0.91424,-6.603742 -0.51825,-11.223 -2.36055,-7.611939 -2.72964,-10.893369 -1.72304,-15.319058 0.53531,-2.353564 0.52965,-2.438939 -0.26167,-3.950193 -1.12769,-2.153621 -1.07325,-4.972227 0.1643,-8.506513 1.4304,-4.085082 1.56699,-6.863793 0.50748,-10.324236 -1.99325,-6.510125 -6.01619,-17.096891 -6.92159,-18.215091 l -0.6324,-0.780909 -3.8454,1.323168 c -2.1149,0.7277412 -4.7185,1.8100352 -5.7856,2.4050972 -1.0672,0.5950621 -2.9135,1.6152072 -4.103,2.2669853 -1.1894,0.6517781 -2.3314,1.3884027 -2.5376,1.6369455 -0.2063,0.248539 -0.5371,1.457727 -0.7351,2.687087 -0.5918,3.674798 -1.8458,4.878789 -6.0862,5.843234 -3.2006,0.727975 -5.8814,0.676607 -9.4601,-0.181278 -8.7509,-2.097722 -13.97,-7.299854 -14.2806,-14.2340608 -0.109,-2.4339232 -0.2428,-2.8467652 -1.5635,-4.8246062 -3.5605,-5.331764 -3.3382,-11.019293 0.5449,-13.946939 2.1743,-1.639341 5.7908,-2.447008 8.4709,-1.891813 5.0188,1.039636 9.3661,3.07564 16.8739,7.902614 7.5083,4.827333 9.1294,5.575081 12.5113,5.770858 3.27,0.189294 9.2085,-0.445872 10.5384,-1.127149 0.5165,-0.264605 2.3586,-0.834979 4.09349,-1.267503 1.73487,-0.432523 4.59237,-1.347448 6.35,-2.033167 3.90219,-1.522395 7.66854,-2.554305 9.3229,-2.554305 1.72087,0 5.34337,0.953375 8.30687,2.186213 3.57672,1.487935 5.0238,1.957102 7.90734,2.563675 1.40304,0.295137 2.9827,0.843774 3.51034,1.219189 1.5948,1.134703 6.13888,1.965396 10.66073,1.948864 3.78127,-0.01383 4.21696,-0.08926 6.41182,-1.110082 1.29519,-0.602389 4.31144,-2.357839 6.70278,-3.900999 5.28503,-3.410486 9.18287,-5.66064 12.45569,-7.190433 2.04447,-0.955639 2.99114,-1.176662 5.56736,-1.299831 4.90202,-0.234371 7.26383,1.022742 8.98509,4.78246 1.64499,3.593144 1.10267,6.712092 -2.06118,11.854004 -0.84897,1.379756 -1.13685,2.359861 -1.3771,4.6884552 -0.37377,3.6227737 -2.09614,7.1994038 -4.47556,9.2938568 -1.78178,1.568386 -6.40558,3.625966 -10.50387,4.674196 -7.57961,1.938651 -14.28057,-1.539427 -14.29473,-7.419566 -0.001,-0.449319 -0.15765,-1.107839 -0.34793,-1.463379 -0.38668,-0.722517 -3.8548,-2.9968786 -7.03129,-4.6110556 -2.94031,-1.4941585 -9.48285,-3.8743004 -10.05071,-3.6563964 -0.53317,0.204597 -3.25614,6.4212957 -4.4655,10.194995 -0.43526,1.358194 -1.56104,4.510669 -2.50174,7.005496 -2.0511,5.439752 -2.1153,6.585761 -0.63779,11.383754 1.59431,5.177268 1.71575,7.130376 0.58476,9.40417 -0.79572,1.599763 -0.87352,2.047117 -0.59606,3.427413 0.17552,0.873125 0.32604,3.175702 0.33449,5.11684 0.0145,3.340089 -0.0794,3.803544 -1.75261,8.643055 -2.2525,6.51522 -2.43063,7.93864 -1.41962,11.344243 1.03251,3.478026 0.89482,4.532934 -0.69297,5.309359 -1.38977,0.679591 -9.30389,2.062434 -11.46527,2.003337 -0.77611,-0.02124 -2.04611,-0.166536 -2.82222,-0.322919 z m 9.11472,-1.280883 c 0.74449,-0.123003 1.43599,-0.438334 1.53668,-0.70073 0.1007,-0.262396 -0.30999,-1.245468 -0.91264,-2.184604 -1.43911,-2.242676 -1.40241,-3.414237 0.18033,-5.755443 1.50345,-2.223914 1.79509,-3.789154 1.18211,-6.344352 l -0.4489,-1.871214 1.25358,-1.01461 1.25359,-1.01461 -0.88565,-1.934513 c -1.04361,-2.279534 -0.94732,-3.196142 0.59051,-5.621042 1.96019,-3.090901 2.24993,-5.341108 0.86593,-6.725108 -0.79188,-0.791877 -1.11113,-0.882449 -2.45924,-0.697667 -1.30172,0.17842 -1.70412,0.07912 -2.51868,-0.621535 -0.89916,-0.773423 -0.98543,-1.086143 -1.18999,-4.313382 -0.1213,-1.913724 -0.43447,-4.722632 -0.69593,-6.242015 -0.60421,-3.511073 -0.12228,-7.228081 1.38505,-10.682618 0.58313,-1.336425 2.26959,-5.364875 3.74769,-8.952114 1.4781,-3.5872347 3.02496,-7.079735 3.43745,-7.761111 2.28191,-3.769367 4.4006,-5.295808 7.35056,-5.295808 1.13786,0 1.40654,-0.118466 1.31577,-0.580143 -0.0835,-0.424921 -1.07743,-0.796082 -3.71458,-1.387179 -6.39058,-1.432408 -7.49456,-1.425762 -14.07219,0.08473 -2.33906,0.537143 -2.61677,0.535013 -4.23334,-0.03249 -0.96144,-0.337513 -3.29735,-0.687906 -5.25783,-0.788691 -3.001,-0.15428 -4.07724,-0.046 -7.20743,0.725156 -2.02386,0.498584 -3.82766,1.05453 -4.00856,1.235435 -0.6012,0.601158 0.1266,1.095848 1.6236,1.103693 1.9881,0.01041 4.05452,1.005311 5.49451,2.645364 1.2863,1.465012 6.89182,12.543815 8.95521,17.699165 2.25724,5.639685 2.88446,10.901838 1.58657,13.310827 -0.21712,0.403003 -0.36906,1.985024 -0.33763,3.515604 0.0432,2.105011 -0.11386,3.169447 -0.64488,4.369914 l -0.70203,1.587042 -1.90126,-0.223457 c -2.47551,-0.290946 -3.38137,0.363742 -3.63662,2.628293 -0.14259,1.265044 0.0503,2.131226 0.93954,4.21941 1.32776,3.117899 1.41859,4.625477 0.39909,6.623864 -0.82707,1.621201 -0.6358,2.534363 0.67814,3.237562 0.63516,0.339926 0.67469,0.62763 0.47423,3.451641 -0.21521,3.031938 -0.19835,3.12117 1.06289,5.625662 0.70486,1.399671 1.28157,2.710015 1.28157,2.911871 0,0.201855 -0.5818,1.243266 -1.29289,2.314246 -0.93424,1.407062 -1.18607,2.054063 -0.90781,2.33232 1.01612,1.01612 7.10972,1.671779 10.43348,1.122624 z M -663.40735,3.09243 c 0.11628,-0.188154 -0.31091,-0.563118 -0.94933,-0.833254 -3.49689,-1.479659 -3.34568,-4.305049 0.52733,-9.8534639 0.7805,-1.1181433 1.34065,-2.1114385 1.24476,-2.2073235 -0.0959,-0.095889 -0.83853,0.3068038 -1.65033,0.8948632 -6.05619,4.3870843 -7.85825,10.6756092 -3.42786,11.9620202 1.48835,0.43216 3.99776,0.454071 4.25543,0.03716 z m -88.71738,-1.597342 c 1.275,-1.154614 1.819,-2.525445 1.5568,-3.922984 -0.3627,-1.9330531 -4.4815,-5.7551286 -8.2317,-7.63851 l -2.9711,-1.492116 h -4.0844 c -3.8328,0 -4.215,0.06522 -6.2012,1.058333 -2.3245,1.1622617 -2.6352,1.7748038 -1.9514,3.8469322 0.4705,1.4253457 3.5141,4.4990738 5.682,5.7380508 3.9461,2.255276 7.9995,3.300814 12.3725,3.191361 2.485,-0.06219 3.1945,-0.20695 3.8285,-0.781067 z m 96.59442,-0.710636 c 5.35404,-2.680243 10.3008,-8.0080022 10.29629,-11.089322 -0.002,-1.522317 -1.2251,-3.109535 -2.71436,-3.523093 -2.28189,-0.633663 -6.20413,-0.459645 -8.47178,0.375867 -1.60406,0.591009 -2.55844,1.290493 -4.45235,3.263195 -2.79273,2.9089204 -5.15888,6.65958 -5.41746,8.58738 -0.22525,1.679384 0.55908,2.745083 2.53643,3.446321 2.69772,0.956705 4.71309,0.696835 8.22323,-1.060348 z m -15.79262,-8.1344378 c 1.78511,-2.8883752 6.80161,-6.2637212 10.46194,-7.0393202 2.76331,-0.585523 10.28554,-0.688813 12.10284,-0.16619 1.01845,0.29289 1.38512,0.240633 2.11215,-0.301022 1.33454,-0.994259 2.58866,-3.735807 2.75389,-6.020054 0.12775,-1.766126 0.0343,-2.136151 -0.78573,-3.110685 -1.35885,-1.614907 -2.88869,-2.016026 -5.7759,-1.514436 -3.77658,0.656099 -6.491,2.032522 -14.01585,7.107149 -7.26025,4.896174 -10.97753,6.792387 -14.26371,7.276034 -0.99234,0.14605 -1.82287,0.424293 -1.84563,0.618321 -0.0227,0.194028 0.97553,0.9383571 2.21841,1.6540656 5.99912,3.454594 5.84716,3.4222901 7.03759,1.4961376 z m -81.8598,-0.1090542 c 0,-0.5894387 -2.7716,-3.163517 -4.8219,-4.478196 -2.6496,-1.698985 -5.1108,-2.554499 -8.1657,-2.838426 -4.8277,-0.448691 -7.4735,0.62211 -7.4735,3.024717 0,1.282947 0.1221,1.29831 2.3364,0.294033 1.4299,-0.648486 2.3166,-0.774936 5.2483,-0.748393 4.2266,0.03827 6.3618,0.734515 10.1681,3.3156206 2.8305,1.9194286 2.7083,1.8549161 2.7083,1.4306444 z m 7.9507,-1.1986648 c 1.3509,-0.8298956 2.4563,-1.7228362 2.4563,-1.9843082 0,-0.282014 -1.3022,-0.928052 -3.2011,-1.588114 -3.7268,-1.295424 -7.3672,-3.398668 -11.0864,-6.405184 -9.3423,-7.552016 -16.8099,-10.188487 -19.9536,-7.044715 -1.723,1.722956 -1.4425,5.094556 0.6191,7.442595 1.9174,2.183807 2.6498,2.385 7.6716,2.107269 7.7123,-0.426537 12.3668,1.24678 17.0643,6.1347557 1.5046,1.5656312 3.0141,2.8466061 3.3545,2.8466061 0.3404,0 1.7243,-0.6790055 3.0753,-1.5089046 z"
         id="path520" />
      <path
         style="fill:#db3b44;stroke-width:0.352778"
         d="m -712.48922,103.59081 c -1.50143,-0.43496 -3.06372,-2.30213 -4.00717,-4.789171 -0.68218,-1.79828 -0.75564,-2.50167 -0.58337,-5.58516 0.11055,-1.97882 0.59177,-5.07129 1.09598,-7.04314 1.32824,-5.19447 4.7542,-15.71103 5.11815,-15.71103 0.58015,0 4.5557,11.032349 6.35121,17.62494 1.04708,3.84454 1.30643,8.55673 0.60396,10.97316 -1.10238,3.792041 -4.65369,5.667471 -8.57876,4.530401 z m -2.53115,-42.8152 c -2.75955,-0.667826 -2.86067,-0.904508 -1.35522,-3.171877 0.71109,-1.070981 1.29289,-2.112391 1.29289,-2.314247 0,-0.201856 -0.57671,-1.5122 -1.28157,-2.91187 -1.26124,-2.504493 -1.2781,-2.593725 -1.06289,-5.625663 0.20046,-2.824011 0.16093,-3.111715 -0.47423,-3.451641 -1.31394,-0.703199 -1.50521,-1.616361 -0.67814,-3.237562 1.0195,-1.998387 0.92867,-3.505965 -0.39909,-6.623864 -0.88925,-2.088184 -1.08213,-2.954366 -0.93954,-4.219409 0.25525,-2.264552 1.16111,-2.91924 3.63662,-2.628294 l 1.90126,0.223457 0.70203,-1.587042 c 0.53102,-1.200467 0.6881,-2.264903 0.64488,-4.369914 -0.0314,-1.530579 0.12051,-3.112601 0.33763,-3.515604 1.29789,-2.408988 0.67067,-7.671142 -1.58657,-13.310827 -2.06339,-5.15535 -7.66891,-16.234152 -8.95521,-17.699164 -1.43999,-1.640053 -3.50641,-2.634947 -5.49451,-2.645364 -1.497,-0.0078 -2.2248,-0.502536 -1.6236,-1.103694 0.1809,-0.180904 1.9847,-0.73685 4.00856,-1.235434 3.13019,-0.771155 4.20643,-0.879437 7.20743,-0.725156 1.96048,0.100785 4.29639,0.451178 5.25783,0.788691 1.61657,0.567489 1.89428,0.56962 4.23334,0.03249 6.57763,-1.510492 7.68161,-1.517139 14.07219,-0.08473 2.63715,0.591097 3.63104,0.962258 3.71458,1.387179 0.0908,0.461676 -0.17791,0.580143 -1.31577,0.580143 -2.94996,0 -5.06865,1.526441 -7.35056,5.295808 -0.41249,0.681376 -1.95935,4.1738758 -3.43745,7.76111 -1.4781,3.587239 -3.16456,7.615689 -3.74769,8.952114 -1.50733,3.454537 -1.98926,7.171545 -1.38505,10.682619 0.26146,1.519382 0.57463,4.32829 0.69593,6.242014 0.20456,3.227239 0.29083,3.539959 1.18999,4.313382 0.81456,0.700652 1.21696,0.799956 2.51868,0.621535 1.34811,-0.184782 1.66736,-0.09421 2.45924,0.697667 1.384,1.384 1.09426,3.634207 -0.86593,6.725109 -1.53783,2.424899 -1.63412,3.341507 -0.59051,5.621041 l 0.88565,1.934513 -1.25359,1.01461 -1.25358,1.01461 0.4489,1.871215 c 0.61298,2.555197 0.32134,4.120437 -1.18211,6.344351 -1.58274,2.341207 -1.61944,3.512767 -0.18033,5.755443 0.60265,0.939137 1.01334,1.922208 0.91264,2.184604 -0.37628,0.980592 -6.32366,1.236483 -9.70713,0.417664 z M -761.12023,1.870337 c -7.3425,-1.672582 -13.7004,-6.7489452 -13.1663,-10.512322 0.082,-0.5775254 0.7019,-1.0940626 2.2302,-1.858204 1.9862,-0.993108 2.3684,-1.058333 6.2012,-1.058333 h 4.0844 l 2.9711,1.492116 c 3.7502,1.8833814 7.869,5.7054569 8.2317,7.63851 0.2622,1.397539 -0.2818,2.76837 -1.5568,3.922984 -0.634,0.574117 -1.3435,0.718873 -3.8285,0.781067 -1.6777,0.04199 -4.0028,-0.140627 -5.167,-0.405818 z m 97.36669,-0.02554 c -1.97735,-0.701237 -2.76168,-1.766936 -2.53643,-3.446321 0.25858,-1.9278 2.62473,-5.6784591 5.41746,-8.58738 2.94219,-3.064595 5.08599,-4.016544 9.03846,-4.013486 3.5234,0.0028 5.07213,0.49299 5.91282,1.871765 0.91579,1.50193 0.86634,2.5697992 -0.21996,4.7497189 -2.17355,4.3617511 -10.29775,9.9764641 -14.38501,9.9416201 -0.99892,-0.0085 -2.45122,-0.240679 -3.22734,-0.515917 z"
         id="path518" />
    </g>
  </g>
</svg>
